<svg xmlns="http://www.w3.org/2000/svg" width="2386" height="259" viewBox="0 0 2386 259" fill="none">
<path d="M53.1526 3.43717V254.839H-0.000227664V3.43717H53.1526ZM233.265 75.7398C232.283 65.8375 228.068 58.1449 220.621 52.6618C213.174 47.1788 203.067 44.4373 190.3 44.4373C181.626 44.4373 174.301 45.6648 168.327 48.1199C162.353 50.4932 157.77 53.8076 154.579 58.0631C151.469 62.3186 149.914 67.1469 149.914 72.5481C149.75 77.0491 150.692 80.9773 152.737 84.3326C154.865 87.6879 157.77 90.5931 161.453 93.0482C165.136 95.4214 169.391 97.5083 174.22 99.3087C179.048 101.027 184.204 102.5 189.687 103.728L212.274 109.129C223.24 111.584 233.306 114.858 242.471 118.949C251.637 123.041 259.575 128.074 266.286 134.048C272.996 140.022 278.193 147.06 281.876 155.162C285.64 163.264 287.563 172.552 287.645 183.027C287.563 198.413 283.635 211.752 275.861 223.046C268.168 234.257 257.038 242.973 242.471 249.192C227.986 255.33 210.514 258.399 190.055 258.399C169.759 258.399 152.083 255.289 137.025 249.07C122.049 242.85 110.346 233.643 101.917 221.45C93.5696 209.174 89.1914 193.994 88.7822 175.908H140.216C140.789 184.337 143.204 191.375 147.459 197.022C151.796 202.586 157.566 206.801 164.767 209.665C172.051 212.448 180.275 213.839 189.441 213.839C198.443 213.839 206.259 212.53 212.887 209.911C219.598 207.292 224.795 203.65 228.477 198.986C232.16 194.321 234.001 188.961 234.001 182.905C234.001 177.258 232.324 172.511 228.968 168.665C225.695 164.819 220.866 161.545 214.483 158.845C208.182 156.144 200.448 153.689 191.282 151.479L163.908 144.605C142.712 139.45 125.977 131.389 113.701 120.423C101.426 109.456 95.3291 94.6849 95.411 76.108C95.3291 60.8864 99.38 47.588 107.564 36.2127C115.829 24.8374 127.164 15.9582 141.567 9.57491C155.97 3.19165 172.337 2.8218e-05 190.669 2.8218e-05C209.327 2.8218e-05 225.613 3.19165 239.525 9.57491C253.519 15.9582 264.403 24.8374 272.178 36.2127C279.952 47.588 283.962 60.7637 284.208 75.7398H233.265ZM323.397 254.839V3.43717H422.583C441.569 3.43717 457.773 6.83338 471.194 13.6258C484.697 20.3364 494.968 29.8704 502.006 42.2277C509.125 54.5032 512.685 68.9473 512.685 85.5601C512.685 102.255 509.084 116.617 501.883 128.647C494.681 140.595 484.247 149.761 470.58 156.144C456.996 162.527 440.546 165.719 421.233 165.719H354.823V123H412.64C422.788 123 431.217 121.609 437.928 118.827C444.638 116.044 449.63 111.871 452.904 106.306C456.259 100.741 457.937 93.8256 457.937 85.5601C457.937 77.2128 456.259 70.1749 452.904 64.4463C449.63 58.7178 444.597 54.3804 437.805 51.4343C431.094 48.4064 422.624 46.8924 412.395 46.8924H376.55V254.839H323.397ZM459.164 140.432L521.646 254.839H462.97L401.838 140.432H459.164ZM593.581 254.839H536.622L623.41 3.43717H691.907L778.572 254.839H721.614L658.641 60.8864H656.677L593.581 254.839ZM590.021 156.021H724.56V197.513H590.021V156.021ZM808.831 254.839V3.43717H978.233V47.2606H861.984V107.165H969.517V150.988H861.984V211.016H978.724V254.839H808.831ZM1020.49 254.839V3.43717H1073.64V211.016H1181.42V254.839H1020.49ZM1339.96 254.839H1283L1369.79 3.43717H1438.29L1524.95 254.839H1467.99L1405.02 60.8864H1403.06L1339.96 254.839ZM1336.4 156.021H1470.94V197.513H1336.4V156.021ZM1555.21 254.839V3.43717H1608.36V211.016H1716.14V254.839H1555.21ZM1769.76 3.43717L1830.52 194.444H1832.85L1893.74 3.43717H1952.66L1866 254.839H1797.5L1710.71 3.43717H1769.76ZM1982.92 254.839V3.43717H2152.32V47.2606H2036.07V107.165H2143.61V150.988H2036.07V211.016H2152.81V254.839H1982.92ZM2330.96 75.7398C2329.98 65.8375 2325.76 58.1449 2318.32 52.6618C2310.87 47.1788 2300.76 44.4373 2288 44.4373C2279.32 44.4373 2272 45.6648 2266.02 48.1199C2260.05 50.4932 2255.47 53.8076 2252.27 58.0631C2249.16 62.3186 2247.61 67.1469 2247.61 72.5481C2247.45 77.0491 2248.39 80.9773 2250.43 84.3326C2252.56 87.6879 2255.47 90.5931 2259.15 93.0482C2262.83 95.4214 2267.09 97.5083 2271.92 99.3087C2276.74 101.027 2281.9 102.5 2287.38 103.728L2309.97 109.129C2320.94 111.584 2331 114.858 2340.17 118.949C2349.33 123.041 2357.27 128.074 2363.98 134.048C2370.69 140.022 2375.89 147.06 2379.57 155.162C2383.34 163.264 2385.26 172.552 2385.34 183.027C2385.26 198.413 2381.33 211.752 2373.56 223.046C2365.86 234.257 2354.73 242.973 2340.17 249.192C2325.68 255.33 2308.21 258.399 2287.75 258.399C2267.46 258.399 2249.78 255.289 2234.72 249.07C2219.74 242.85 2208.04 233.643 2199.61 221.45C2191.27 209.174 2186.89 193.994 2186.48 175.908H2237.91C2238.49 184.337 2240.9 191.375 2245.15 197.022C2249.49 202.586 2255.26 206.801 2262.46 209.665C2269.75 212.448 2277.97 213.839 2287.14 213.839C2296.14 213.839 2303.95 212.53 2310.58 209.911C2317.29 207.292 2322.49 203.65 2326.17 198.986C2329.86 194.321 2331.7 188.961 2331.7 182.905C2331.7 177.258 2330.02 172.511 2326.66 168.665C2323.39 164.819 2318.56 161.545 2312.18 158.845C2305.88 156.144 2298.14 153.689 2288.98 151.479L2261.6 144.605C2240.41 139.45 2223.67 131.389 2211.4 120.423C2199.12 109.456 2193.02 94.6849 2193.11 76.108C2193.02 60.8864 2197.08 47.588 2205.26 36.2127C2213.53 24.8374 2224.86 15.9582 2239.26 9.57491C2253.67 3.19165 2270.03 2.8218e-05 2288.36 2.8218e-05C2307.02 2.8218e-05 2323.31 3.19165 2337.22 9.57491C2351.22 15.9582 2362.1 24.8374 2369.87 36.2127C2377.65 47.588 2381.66 60.7637 2381.9 75.7398H2330.96Z" fill="#E33029"/>
</svg>